# xmcd CD database file
#
# Track frame offsets:
#	150
#	20309
#	36852
#	52664
#	70353
#	87938
#	103113
#	116612
#	128777
#	143917
#	160680
#	176826
#
# Disc length: 2536 seconds
#
# Revision: 0
# Processed by: cddbd v1.5.1PL0 Copyright (c) Steve Scherf et al.
# Submitted via: CDex 1.51
#
DISCID=9c09e60c
DTITLE=Johnny Cash - America IV :When a Man Comes Around
DYEAR=1900
DGENRE=Country
TTITLE0=The Man Comes Around
TTITLE1=Hurt
TTITLE2=Give My Love to Rose
TTITLE3=I Hung My Head
TTITLE4=The First Time Ever I Saw Your Face
TTITLE5=Personal Jesus
TTITLE6=In My Life
TTITLE7=Sam Hall
TTITLE8=Danny Boy
TTITLE9=Tear Stained Letter
TTITLE10=Desperado
TTITLE11=I'm So Lonesome I Could Cry
EXTD=
EXTT0=
EXTT1=
EXTT2=
EXTT3=
EXTT4=
EXTT5=
EXTT6=
EXTT7=
EXTT8=
EXTT9=
EXTT10=
EXTT11=
PLAYORDER=
